<?xml version="1.0" encoding="utf-8"?>
<!-- Generator: Adobe Illustrator 18.1.1, SVG Export Plug-In . SVG Version: 6.00 Build 0)  -->
<svg version="1.1" id="Layer_1" xmlns="http://www.w3.org/2000/svg" xmlns:xlink="http://www.w3.org/1999/xlink" x="0px" y="0px"
	 width="1200px" height="249.4px" viewBox="0 0 1200 249.4" enable-background="new 0 0 1200 249.4" xml:space="preserve">
<g>
	<path fill="#000000" d="M99.7,199.3c-4.6,0-8.6-0.5-12-1.4v-16.6c3.5,0.9,6.6,1.3,9.5,1.3c4.4,0,7.6-1.4,9.5-4.1
		c1.9-2.7,2.9-7,2.9-12.8V77H130v88.4c0,11-2.5,19.4-7.6,25.2C117.2,196.4,109.7,199.3,99.7,199.3z"/>
	<path fill="#000000" d="M235,162.2c0-3.6,1-6.3,2.9-8.2c1.9-1.8,4.8-2.8,8.6-2.8c3.6,0,6.4,1,8.4,2.9c1.9,1.9,3,4.6,3,8.2
		c0,3.4-1,6.1-3,8.1c-2,1.9-4.8,3-8.3,3c-3.6,0-6.5-1-8.5-2.9C236.1,168.4,235,165.8,235,162.2z"/>
	<path fill="#000000" d="M428.9,106.5c0,10.2-3.2,17.9-9.6,23.4c-6.4,5.4-15.5,8.1-27.4,8.1h-8.6v33.6H363V77h30.4
		c11.5,0,20.4,2.5,26.4,7.4C425.9,89.4,428.9,96.7,428.9,106.5z M383.2,121.5h6.6c6.2,0,10.9-1.2,14-3.7c3.1-2.4,4.6-6,4.6-10.6
		c0-4.7-1.3-8.2-3.9-10.4c-2.6-2.2-6.6-3.4-12.2-3.4h-9.2L383.2,121.5L383.2,121.5z"/>
	<path fill="#000000" d="M590.7,171.5l-6.9-22.5H549l-6.9,22.5h-21.8L554,76.6h24.7l33.8,94.8L590.7,171.5L590.7,171.5z M579,132.2
		c-6.4-20.4-10-31.9-10.8-34.6c-0.8-2.6-1.4-4.8-1.7-6.3c-1.5,5.5-5.6,19.1-12.4,40.9L579,132.2L579,132.2z"/>
	<path fill="#000000" d="M730.2,135.3v36.2H710V77h27.8c12.9,0,22.5,2.3,28.8,7c6.2,4.6,9.3,11.8,9.3,21.3c0,5.5-1.5,10.5-4.6,14.8
		c-3.1,4.3-7.4,7.7-13.1,10.2c14.4,21.2,23.7,35,28,41.1h-22.5l-22.8-36.2L730.2,135.3L730.2,135.3z M730.2,119h6.5
		c6.4,0,11.1-1,14.1-3.2c3.1-2.1,4.6-5.4,4.6-9.9c0-4.5-1.5-7.7-4.7-9.6c-3.1-1.9-7.9-2.9-14.5-2.9h-6.1L730.2,119L730.2,119z"/>
	<path fill="#000000" d="M903.8,135.3v36.2h-20.2V77h27.8c12.9,0,22.5,2.3,28.8,7c6.2,4.6,9.3,11.8,9.3,21.3
		c0,5.5-1.5,10.5-4.6,14.8c-3.1,4.3-7.4,7.7-13.1,10.2c14.4,21.2,23.7,35,28,41.1h-22.5l-22.8-36.2L903.8,135.3L903.8,135.3z
		 M903.8,119h6.5c6.4,0,11.1-1,14.1-3.2c3.1-2.1,4.6-5.4,4.6-9.9c0-4.5-1.5-7.7-4.7-9.6c-3.1-1.9-7.9-2.9-14.5-2.9h-6.1L903.8,119
		L903.8,119z"/>
	<path fill="#000000" d="M1112.2,171.5h-54.9V77h54.9v16.4h-34.7v20.7h32.3v16.4h-32.3V155h34.7V171.5z M1073,69.4v-1.7
		c7.5-8.6,12.6-15.1,15.3-19.4h22.3v1.4c-2.3,2.2-6.1,5.6-11.5,10c-5.5,4.4-9.7,7.7-12.8,9.8L1073,69.4L1073,69.4z"/>
	<path fill="#000000" d="M1200,249.4H0V0h1199.9L1200,249.4L1200,249.4z M13.7,235.8h1172.5V13.6H13.7V235.8z"/>
</g>
</svg>
